<svg xmlns="http://www.w3.org/2000/svg" xmlns:xlink="http://www.w3.org/1999/xlink" width="135.53" height="50" viewBox="0 0 135.53 50"><defs><style>.cls-1,.cls-10,.cls-11,.cls-2,.cls-3,.cls-4,.cls-5,.cls-6,.cls-7,.cls-8,.cls-9{fill-rule:evenodd;}.cls-1{fill:url(#Nueva_muestra_de_degradado_18);}.cls-2{fill:url(#Nueva_muestra_de_degradado_18-2);}.cls-3{fill:url(#Nueva_muestra_de_degradado_18-3);}.cls-4{fill:url(#Nueva_muestra_de_degradado_18-4);}.cls-5{fill:url(#Nueva_muestra_de_degradado_18-5);}.cls-6{fill:url(#Nueva_muestra_de_degradado_18-6);}.cls-7{fill:url(#Nueva_muestra_de_degradado_18-7);}.cls-8{fill:url(#Nueva_muestra_de_degradado_18-8);}.cls-9{fill:url(#Nueva_muestra_de_degradado_18-9);}.cls-10{fill:url(#Nueva_muestra_de_degradado_18-10);}.cls-11{fill:url(#Nueva_muestra_de_degradado_18-11);}</style><linearGradient id="Nueva_muestra_de_degradado_18" x1="143.22" y1="6" x2="-23.49" y2="16.26" gradientUnits="userSpaceOnUse"><stop offset="0.05" stop-color="#e6b964"/><stop offset="0.48" stop-color="#f8e889"/><stop offset="0.53" stop-color="#f3e285"/><stop offset="0.6" stop-color="#e7d178"/><stop offset="0.67" stop-color="#d2b564"/><stop offset="0.75" stop-color="#b48e47"/><stop offset="0.83" stop-color="#8f5c23"/><stop offset="0.84" stop-color="#8e5b22"/><stop offset="0.85" stop-color="#9a682b"/><stop offset="0.88" stop-color="#ba8a43"/><stop offset="0.92" stop-color="#e8ba65"/><stop offset="0.98" stop-color="#844d24"/><stop offset="1" stop-color="#281809"/></linearGradient><linearGradient id="Nueva_muestra_de_degradado_18-2" x1="144.28" y1="23.16" x2="-22.43" y2="33.42" xlink:href="#Nueva_muestra_de_degradado_18"/><linearGradient id="Nueva_muestra_de_degradado_18-3" x1="145.11" y1="36.73" x2="-21.59" y2="46.99" xlink:href="#Nueva_muestra_de_degradado_18"/><linearGradient id="Nueva_muestra_de_degradado_18-4" x1="145.17" y1="37.68" x2="-21.54" y2="47.94" xlink:href="#Nueva_muestra_de_degradado_18"/><linearGradient id="Nueva_muestra_de_degradado_18-5" x1="145.23" y1="38.57" x2="-21.48" y2="48.83" xlink:href="#Nueva_muestra_de_degradado_18"/><linearGradient id="Nueva_muestra_de_degradado_18-6" x1="145.29" y1="39.56" x2="-21.42" y2="49.82" xlink:href="#Nueva_muestra_de_degradado_18"/><linearGradient id="Nueva_muestra_de_degradado_18-7" x1="145.35" y1="40.63" x2="-21.35" y2="50.89" xlink:href="#Nueva_muestra_de_degradado_18"/><linearGradient id="Nueva_muestra_de_degradado_18-8" x1="145.39" y1="41.18" x2="-21.32" y2="51.44" xlink:href="#Nueva_muestra_de_degradado_18"/><linearGradient id="Nueva_muestra_de_degradado_18-9" x1="145.47" y1="42.58" x2="-21.23" y2="52.84" xlink:href="#Nueva_muestra_de_degradado_18"/><linearGradient id="Nueva_muestra_de_degradado_18-10" x1="145.51" y1="43.17" x2="-21.2" y2="53.43" xlink:href="#Nueva_muestra_de_degradado_18"/><linearGradient id="Nueva_muestra_de_degradado_18-11" x1="145.55" y1="43.86" x2="-21.15" y2="54.12" xlink:href="#Nueva_muestra_de_degradado_18"/></defs><title>car-repair</title><g id="レイヤー_2" data-name="レイヤー 2"><g id="レイヤー_1-2" data-name="レイヤー 1"><path class="cls-1" d="M1.93,24.45S4.83,20,13.06,17.39s18.83-4.06,26.41-4.67C53.35,11.61,60.44,3,74,.84,82.49-.5,87.28,0,95.34.88s15.69,3,21.37,4.36,8,2,10.41,2.35a25.69,25.69,0,0,0,6.28.23,11.27,11.27,0,0,0,2.13-.68,6.62,6.62,0,0,1-1.69,1.93c-.92.59-5.2,1.57-10.64,1.67S79.44,11.8,79.44,11.8s18.44-1.89,21.28-2.57S103,8.84,104,7.64s1-1.94.18-2.26C87.82-.54,66.91,2.08,52.79,13l-2,1.22s-1.6.14-7.34.36S12.59,17,1.93,24.45Z"/><path class="cls-2" d="M113.53,13.87a11.47,11.47,0,0,1,8,3.19l7.14-.66a6,6,0,0,0,2.53-1.63A6.69,6.69,0,0,0,132,12s.62,3.19-.45,4.75a4.91,4.91,0,0,1-2.4,1.95l-6,.26-10.91.5-5,7,5.06,6.8,9.89-.28a11.53,11.53,0,0,1-15.65,1.51h0L35.81,33h0a8.11,8.11,0,0,1-13.17,2.47l7-.22,3.27-5-3.81-4.72-21.82.63,15.2-1.94a8.12,8.12,0,0,1,13.27,2h0s59.49-4.87,67.44-5.83a11.53,11.53,0,0,1,10.39-6.54Zm-77,15.53c6.16-2.35,62-3,62-3s.07,0,.87.81-.28,1.86-.28,1.86l-32,3.23,37.31-.13a11.49,11.49,0,0,1-2.18-6.74,12.39,12.39,0,0,1,.11-1.63l-66,4.08A7.61,7.61,0,0,1,36.52,29.4Z"/><path class="cls-3" d="M5.05,40.24a4.08,4.08,0,0,0-1.48.28,4.76,4.76,0,0,0-1.33.8,5,5,0,0,0-1,1.17,4.1,4.1,0,0,0-.59,1.4L.08,46.34a3.35,3.35,0,0,0,0,1.41A3,3,0,0,0,.6,48.92a2.61,2.61,0,0,0,1,.79A3.19,3.19,0,0,0,3,50h9.7l.52-2.43H5.91a.89.89,0,0,1-.77-.37A1,1,0,0,1,5,46.34l.52-2.45A1.49,1.49,0,0,1,6,43,1.42,1.42,0,0,1,7,42.69h7.27l.53-2.45Z"/><path class="cls-4" d="M14.23,50l1.31-6.11a4.31,4.31,0,0,1,.59-1.4,5,5,0,0,1,1-1.17,4.67,4.67,0,0,1,1.34-.8A4,4,0,0,1,20,40.24h7.33a3.11,3.11,0,0,1,1.35.28,2.78,2.78,0,0,1,1.55,2,3.15,3.15,0,0,1,0,1.4L28.9,50H24l.35-1.63H21l.53-2.45h3.37l.44-2a1,1,0,0,0-1-1.2H21.89A1.42,1.42,0,0,0,21,43a1.52,1.52,0,0,0-.53.85L19.11,50Z"/><path class="cls-5" d="M37.54,46.94l.22-1H39.9a1.12,1.12,0,0,0,.53-.13,1.89,1.89,0,0,0,.46-.34,2.12,2.12,0,0,0,.35-.44,1.52,1.52,0,0,0,.18-.47l.14-.65a1,1,0,0,0-.18-.85.93.93,0,0,0-.78-.35H36.92L35.35,50H30.47l2.09-9.76h11a3.18,3.18,0,0,1,1.36.28,2.83,2.83,0,0,1,1,.8,2.93,2.93,0,0,1,.54,1.17,3.16,3.16,0,0,1,0,1.4l-.17.81a2.81,2.81,0,0,1-.34.82,4.65,4.65,0,0,1-.62.82,7.23,7.23,0,0,1-.8.76,6.56,6.56,0,0,1-.9.62L45.07,50H39.6Z"/><path class="cls-6" d="M53.77,46.94l.22-1h2.15a1.11,1.11,0,0,0,.52-.13,1.77,1.77,0,0,0,.47-.34,2.07,2.07,0,0,0,.34-.44,1.86,1.86,0,0,0,.19-.47l.14-.65a1,1,0,0,0-.18-.85,1,1,0,0,0-.79-.35H53.16L51.58,50H46.7l2.1-9.76h11a3.11,3.11,0,0,1,1.35.28,2.78,2.78,0,0,1,1.55,2,3.15,3.15,0,0,1,0,1.4l-.17.81a2.81,2.81,0,0,1-.34.82,5.2,5.2,0,0,1-.62.82,7.23,7.23,0,0,1-.8.76,8.06,8.06,0,0,1-.9.62L61.31,50H55.83Z"/><path class="cls-7" d="M68.69,40.24H78.4l-.53,2.45H70.6a1.4,1.4,0,0,0-.93.35,1.5,1.5,0,0,0-.54.87h6.93l-.52,2.43H68.61a1,1,0,0,0,.16.86.92.92,0,0,0,.78.37h7.27L76.3,50H66.59a3.14,3.14,0,0,1-1.35-.29,2.61,2.61,0,0,1-1-.79,2.84,2.84,0,0,1-.53-1.17,3.35,3.35,0,0,1,0-1.41l.53-2.45a4.1,4.1,0,0,1,.59-1.4,5.25,5.25,0,0,1,1-1.17,5,5,0,0,1,1.34-.8A4,4,0,0,1,68.69,40.24Z"/><path class="cls-8" d="M82.75,50H77.87L80,40.24H91a3.11,3.11,0,0,1,1.35.28,2.74,2.74,0,0,1,1,.8,2.68,2.68,0,0,1,.54,1.17,3.31,3.31,0,0,1,0,1.4l-.17.81A3.77,3.77,0,0,1,93.13,46a6.31,6.31,0,0,1-1,1.19,5.74,5.74,0,0,1-1.35.89,3.64,3.64,0,0,1-1.55.34H84.63l.53-2.45H87.3a1.12,1.12,0,0,0,.53-.13,1.94,1.94,0,0,0,.47-.34,2.07,2.07,0,0,0,.34-.44,1.86,1.86,0,0,0,.19-.47l.14-.65a1,1,0,0,0-1-1.2H84.32Z"/><path class="cls-9" d="M94.11,50l1.31-6.11a3.91,3.91,0,0,1,.59-1.4,5,5,0,0,1,1-1.17,4.81,4.81,0,0,1,1.34-.8,4,4,0,0,1,1.48-.28h7.33a3.18,3.18,0,0,1,1.36.28,2.71,2.71,0,0,1,1,.8,2.81,2.81,0,0,1,.55,1.17,3.16,3.16,0,0,1,0,1.4L108.77,50h-4.88l.35-1.63h-3.37l.53-2.45h3.36l.44-2A1,1,0,0,0,105,43a.94.94,0,0,0-.79-.35h-2.47a1.38,1.38,0,0,0-.92.35,1.49,1.49,0,0,0-.54.85L99,50Z"/><polygon class="cls-10" points="112.46 40.24 117.34 40.24 115.24 50 110.36 50 112.46 40.24"/><path class="cls-11" d="M123.9,46.94l.22-1h2.15a1.11,1.11,0,0,0,.52-.13,1.94,1.94,0,0,0,.47-.34,2.07,2.07,0,0,0,.34-.44,1.86,1.86,0,0,0,.19-.47l.14-.65a1,1,0,0,0-1-1.2h-3.68L121.71,50h-4.88l2.1-9.76h11a3.11,3.11,0,0,1,1.35.28,2.74,2.74,0,0,1,1,.8,2.68,2.68,0,0,1,.54,1.17,3.15,3.15,0,0,1,0,1.4l-.17.81a3.11,3.11,0,0,1-.34.82,5.2,5.2,0,0,1-.62.82,6.54,6.54,0,0,1-.81.76,7.15,7.15,0,0,1-.89.62L131.44,50H126Z"/></g></g></svg>